<svg xmlns="http://www.w3.org/2000/svg" xmlns:xlink="http://www.w3.org/1999/xlink" width="600" zoomAndPan="magnify" viewBox="0 0 450 449.999984" height="600" preserveAspectRatio="xMidYMid meet" version="1.0"><defs><clipPath id="53b7d5799d"><path d="M 50.53125 25.503906 L 399.28125 25.503906 L 399.28125 424.503906 L 50.53125 424.503906 Z M 50.53125 25.503906 " clip-rule="nonzero"/></clipPath></defs><g clip-path="url(#53b7d5799d)"><path fill="#545454" d="M 191.152344 64.238281 C 182.085938 73.695312 175.152344 89.019531 175.152344 111.765625 L 175.152344 137.761719 L 274.847656 137.761719 L 274.847656 111.769531 C 274.847656 70.609375 248.707031 51.152344 224.683594 50.542969 C 212.402344 50.230469 200.269531 54.734375 191.152344 64.238281 Z M 299.769531 137.761719 L 299.769531 111.769531 C 299.769531 57.851562 263.601562 26.601562 225.316406 25.625 C 206.441406 25.144531 187.414062 32.128906 173.167969 46.988281 C 158.871094 61.894531 150.226562 83.808594 150.226562 111.765625 L 150.226562 137.761719 L 50.53125 137.761719 L 50.53125 362.078125 C 50.53125 396.492188 78.425781 424.390625 112.839844 424.390625 L 337.15625 424.390625 C 371.570312 424.390625 399.46875 396.492188 399.46875 362.078125 L 399.46875 137.761719 Z M 274.847656 162.6875 L 274.847656 175.148438 L 299.769531 175.148438 L 299.769531 162.6875 L 374.542969 162.6875 L 374.542969 362.078125 C 374.542969 382.726562 357.804688 399.464844 337.15625 399.464844 L 112.839844 399.464844 C 92.191406 399.464844 75.453125 382.726562 75.453125 362.078125 L 75.453125 162.6875 L 150.226562 162.6875 L 150.226562 175.148438 L 175.152344 175.148438 L 175.152344 162.6875 Z M 274.847656 162.6875 " fill-opacity="1" fill-rule="evenodd"/></g></svg>