<svg xmlns="http://www.w3.org/2000/svg" xmlns:xlink="http://www.w3.org/1999/xlink" width="500" zoomAndPan="magnify" viewBox="0 0 375 374.999991" height="500" preserveAspectRatio="xMidYMid meet" version="1.0"><defs><g/><clipPath id="93fdee2196"><rect x="0" width="356" y="0" height="129"/></clipPath></defs><g transform="matrix(1, 0, 0, 1, 9, 123)"><g clip-path="url(#93fdee2196)"><g fill="#1a182c" fill-opacity="1"><g transform="translate(3.280269, 96.08276)"><g><path d="M 34.8125 -7.84375 C 37.101562 -7.84375 39.421875 -9.164062 41.765625 -11.8125 C 44.109375 -14.457031 46.300781 -18.96875 48.34375 -25.34375 L 53.671875 -58.265625 C 54.148438 -61.398438 54.285156 -63.597656 54.078125 -64.859375 C 53.867188 -66.117188 53.765625 -66.75 53.765625 -66.75 C 53.765625 -66.75 54.15625 -66.898438 54.9375 -67.203125 C 55.71875 -67.503906 57.039062 -67.65625 58.90625 -67.65625 C 62.269531 -67.65625 64.382812 -66.882812 65.25 -65.34375 C 66.125 -63.8125 66.265625 -61.300781 65.671875 -57.8125 L 61.421875 -33.828125 C 60.335938 -27.628906 59.796875 -22.664062 59.796875 -18.9375 C 59.796875 -14.789062 60.394531 -11.90625 61.59375 -10.28125 C 62.800781 -8.65625 64.457031 -7.84375 66.5625 -7.84375 C 69.875 -7.84375 73.09375 -10.488281 76.21875 -15.78125 C 77.476562 -17.945312 78.679688 -20.578125 79.828125 -23.671875 C 80.972656 -26.773438 81.976562 -30.097656 82.84375 -33.640625 C 83.71875 -37.191406 84.394531 -40.722656 84.875 -44.234375 C 85.363281 -47.753906 85.609375 -51.019531 85.609375 -54.03125 C 85.609375 -58.125 85.335938 -61.414062 84.796875 -63.90625 C 84.253906 -66.40625 83.984375 -67.65625 83.984375 -67.65625 C 83.984375 -67.65625 84.296875 -67.789062 84.921875 -68.0625 C 85.554688 -68.332031 86.535156 -68.46875 87.859375 -68.46875 C 90.503906 -68.46875 92.25 -67.578125 93.09375 -65.796875 C 93.9375 -64.023438 94.359375 -61.726562 94.359375 -58.90625 C 94.359375 -56.195312 93.9375 -52.914062 93.09375 -49.0625 C 92.25 -45.21875 91.179688 -41.21875 89.890625 -37.0625 C 88.597656 -32.914062 87.316406 -29.039062 86.046875 -25.4375 C 83.285156 -17.5625 80.128906 -11.351562 76.578125 -6.8125 C 73.035156 -2.269531 68.617188 0 63.328125 0 C 59.296875 0 56.015625 -1.109375 53.484375 -3.328125 C 50.960938 -5.554688 49.28125 -8.597656 48.4375 -12.453125 C 46.09375 -8.597656 43.445312 -5.554688 40.5 -3.328125 C 37.550781 -1.109375 34.425781 0 31.125 0 C 26.132812 0 22.445312 -1.648438 20.0625 -4.953125 C 17.6875 -8.265625 16.5 -13.109375 16.5 -19.484375 C 16.5 -21.460938 16.617188 -23.609375 16.859375 -25.921875 C 17.109375 -28.242188 17.441406 -30.695312 17.859375 -33.28125 L 21.921875 -58.265625 C 22.097656 -59.472656 22.21875 -60.507812 22.28125 -61.375 C 22.34375 -62.25 22.375 -62.6875 22.375 -62.6875 L 21.5625 -62.6875 C 17.46875 -62.6875 14.398438 -61.707031 12.359375 -59.75 C 10.316406 -57.800781 9.296875 -55.535156 9.296875 -52.953125 C 9.296875 -51.691406 9.609375 -50.679688 10.234375 -49.921875 C 10.867188 -49.171875 11.757812 -48.796875 12.90625 -48.796875 C 13.382812 -48.796875 13.757812 -48.84375 14.03125 -48.9375 C 14.300781 -49.03125 14.4375 -49.078125 14.4375 -49.078125 C 14.4375 -49.078125 14.445312 -49.015625 14.46875 -48.890625 C 14.5 -48.765625 14.515625 -48.554688 14.515625 -48.265625 C 14.515625 -47.179688 13.941406 -46.066406 12.796875 -44.921875 C 11.660156 -43.773438 9.953125 -43.203125 7.671875 -43.203125 C 4.722656 -43.203125 2.40625 -44.03125 0.71875 -45.6875 C -0.957031 -47.34375 -1.796875 -49.523438 -1.796875 -52.234375 C -1.796875 -56.679688 0.171875 -60.363281 4.109375 -63.28125 C 8.046875 -66.195312 13.648438 -67.65625 20.921875 -67.65625 L 27.15625 -67.65625 C 30.519531 -67.65625 32.632812 -66.882812 33.5 -65.34375 C 34.375 -63.8125 34.515625 -61.300781 33.921875 -57.8125 L 28.859375 -29.140625 C 28.503906 -26.972656 28.25 -25 28.09375 -23.21875 C 27.945312 -21.445312 27.875 -19.867188 27.875 -18.484375 C 27.875 -14.460938 28.535156 -11.679688 29.859375 -10.140625 C 31.179688 -8.609375 32.832031 -7.84375 34.8125 -7.84375 Z M 34.8125 -7.84375 "/></g></g></g><g fill="#1a182c" fill-opacity="1"><g transform="translate(100.332103, 96.08276)"><g><path d="M 22.28125 -45.09375 C 27.570312 -45.09375 31.660156 -43.515625 34.546875 -40.359375 C 37.429688 -37.203125 38.875 -33.039062 38.875 -27.875 C 38.875 -26.90625 38.828125 -25.941406 38.734375 -24.984375 C 38.648438 -24.023438 38.546875 -23.09375 38.421875 -22.1875 C 40.710938 -22.550781 42.664062 -23.300781 44.28125 -24.4375 C 45.90625 -25.582031 47.15625 -26.664062 48.03125 -27.6875 C 48.90625 -28.707031 49.34375 -29.21875 49.34375 -29.21875 C 50.601562 -29.21875 51.144531 -28.46875 50.96875 -26.96875 C 50.78125 -25.945312 50.070312 -24.789062 48.84375 -23.5 C 47.613281 -22.207031 46.019531 -21.046875 44.0625 -20.015625 C 42.101562 -18.992188 39.925781 -18.335938 37.53125 -18.046875 C 36.019531 -12.691406 33.234375 -8.34375 29.171875 -5 C 25.117188 -1.664062 20.023438 0 13.890625 0 C 9.140625 0 5.1875 -1.472656 2.03125 -4.421875 C -1.125 -7.367188 -2.703125 -11.640625 -2.703125 -17.234375 C -2.703125 -22.703125 -1.695312 -27.523438 0.3125 -31.703125 C 2.332031 -35.878906 5.21875 -39.15625 8.96875 -41.53125 C 12.726562 -43.90625 17.164062 -45.09375 22.28125 -45.09375 Z M 22.640625 -27.609375 C 22.640625 -29.171875 23.03125 -30.503906 23.8125 -31.609375 C 24.59375 -32.722656 25.734375 -33.429688 27.234375 -33.734375 C 26.753906 -38.367188 24.800781 -40.6875 21.375 -40.6875 C 19.15625 -40.6875 16.960938 -39.363281 14.796875 -36.71875 C 12.628906 -34.070312 10.914062 -29.378906 9.65625 -22.640625 C 9.414062 -21.492188 9.21875 -19.941406 9.0625 -17.984375 C 8.914062 -16.035156 8.84375 -14.488281 8.84375 -13.34375 C 8.84375 -10.519531 9.367188 -8.34375 10.421875 -6.8125 C 11.472656 -5.28125 12.929688 -4.515625 14.796875 -4.515625 C 17.253906 -4.515625 19.460938 -5.820312 21.421875 -8.4375 C 23.378906 -11.050781 24.925781 -15.0625 26.0625 -20.46875 C 23.78125 -22.21875 22.640625 -24.597656 22.640625 -27.609375 Z M 22.640625 -27.609375 "/></g></g></g><g fill="#1a182c" fill-opacity="1"><g transform="translate(148.226636, 96.08276)"><g><path d="M 22.28125 -45.09375 C 27.570312 -45.09375 31.660156 -43.515625 34.546875 -40.359375 C 37.429688 -37.203125 38.875 -33.039062 38.875 -27.875 C 38.875 -26.90625 38.828125 -25.941406 38.734375 -24.984375 C 38.648438 -24.023438 38.546875 -23.09375 38.421875 -22.1875 C 40.710938 -22.550781 42.664062 -23.300781 44.28125 -24.4375 C 45.90625 -25.582031 47.15625 -26.664062 48.03125 -27.6875 C 48.90625 -28.707031 49.34375 -29.21875 49.34375 -29.21875 C 50.601562 -29.21875 51.144531 -28.46875 50.96875 -26.96875 C 50.78125 -25.945312 50.070312 -24.789062 48.84375 -23.5 C 47.613281 -22.207031 46.019531 -21.046875 44.0625 -20.015625 C 42.101562 -18.992188 39.925781 -18.335938 37.53125 -18.046875 C 36.019531 -12.691406 33.234375 -8.34375 29.171875 -5 C 25.117188 -1.664062 20.023438 0 13.890625 0 C 9.140625 0 5.1875 -1.472656 2.03125 -4.421875 C -1.125 -7.367188 -2.703125 -11.640625 -2.703125 -17.234375 C -2.703125 -22.703125 -1.695312 -27.523438 0.3125 -31.703125 C 2.332031 -35.878906 5.21875 -39.15625 8.96875 -41.53125 C 12.726562 -43.90625 17.164062 -45.09375 22.28125 -45.09375 Z M 22.640625 -27.609375 C 22.640625 -29.171875 23.03125 -30.503906 23.8125 -31.609375 C 24.59375 -32.722656 25.734375 -33.429688 27.234375 -33.734375 C 26.753906 -38.367188 24.800781 -40.6875 21.375 -40.6875 C 19.15625 -40.6875 16.960938 -39.363281 14.796875 -36.71875 C 12.628906 -34.070312 10.914062 -29.378906 9.65625 -22.640625 C 9.414062 -21.492188 9.21875 -19.941406 9.0625 -17.984375 C 8.914062 -16.035156 8.84375 -14.488281 8.84375 -13.34375 C 8.84375 -10.519531 9.367188 -8.34375 10.421875 -6.8125 C 11.472656 -5.28125 12.929688 -4.515625 14.796875 -4.515625 C 17.253906 -4.515625 19.460938 -5.820312 21.421875 -8.4375 C 23.378906 -11.050781 24.925781 -15.0625 26.0625 -20.46875 C 23.78125 -22.21875 22.640625 -24.597656 22.640625 -27.609375 Z M 22.640625 -27.609375 "/></g></g></g><g fill="#1a182c" fill-opacity="1"><g transform="translate(196.121168, 96.08276)"><g><path d="M 36.53125 -7.484375 C 41.457031 -7.484375 45.816406 -8.296875 49.609375 -9.921875 C 53.398438 -11.546875 56.316406 -13.472656 58.359375 -15.703125 C 59.078125 -15.703125 59.539062 -15.519531 59.75 -15.15625 C 59.96875 -14.789062 60.015625 -14.304688 59.890625 -13.703125 C 59.648438 -12.566406 58.789062 -11.21875 57.3125 -9.65625 C 55.84375 -8.09375 53.859375 -6.570312 51.359375 -5.09375 C 48.867188 -3.625 45.96875 -2.40625 42.65625 -1.4375 C 39.351562 -0.476562 35.71875 0 31.75 0 C 26.632812 0 22.015625 -1.125 17.890625 -3.375 C 13.773438 -5.632812 10.515625 -8.851562 8.109375 -13.03125 C 5.710938 -17.207031 4.515625 -22.210938 4.515625 -28.046875 C 4.515625 -34.003906 5.367188 -39.398438 7.078125 -44.234375 C 8.796875 -49.078125 11.1875 -53.242188 14.25 -56.734375 C 17.320312 -60.222656 20.867188 -62.914062 24.890625 -64.8125 C 28.921875 -66.707031 33.28125 -67.65625 37.96875 -67.65625 C 41.757812 -67.65625 44.929688 -66.929688 47.484375 -65.484375 C 50.046875 -64.046875 51.972656 -62.164062 53.265625 -59.84375 C 54.554688 -57.53125 55.203125 -55.019531 55.203125 -52.3125 C 55.203125 -49.488281 54.675781 -47.097656 53.625 -45.140625 C 52.570312 -43.191406 51.203125 -41.71875 49.515625 -40.71875 C 47.835938 -39.726562 46.066406 -39.234375 44.203125 -39.234375 C 42.753906 -39.234375 41.59375 -39.488281 40.71875 -40 C 39.851562 -40.507812 39.238281 -41.019531 38.875 -41.53125 C 38.519531 -42.050781 38.34375 -42.3125 38.34375 -42.3125 C 38.34375 -42.3125 38.6875 -42.503906 39.375 -42.890625 C 40.0625 -43.285156 40.84375 -43.960938 41.71875 -44.921875 C 42.59375 -45.878906 43.375 -47.1875 44.0625 -48.84375 C 44.75 -50.5 45.09375 -52.585938 45.09375 -55.109375 C 45.09375 -57.515625 44.414062 -59.378906 43.0625 -60.703125 C 41.71875 -62.023438 39.929688 -62.6875 37.703125 -62.6875 C 35.117188 -62.6875 32.59375 -61.8125 30.125 -60.0625 C 27.65625 -58.320312 25.441406 -55.90625 23.484375 -52.8125 C 21.535156 -49.71875 19.972656 -46.140625 18.796875 -42.078125 C 17.628906 -38.015625 17.046875 -33.671875 17.046875 -29.046875 C 17.046875 -22.128906 18.789062 -16.804688 22.28125 -13.078125 C 25.769531 -9.347656 30.519531 -7.484375 36.53125 -7.484375 Z M 36.53125 -7.484375 "/></g></g></g><g fill="#1a182c" fill-opacity="1"><g transform="translate(254.298131, 96.08276)"><g><path d="M -1 -19.84375 L 7.21875 -66.296875 C 7.695312 -69.117188 7.832031 -71.117188 7.625 -72.296875 C 7.414062 -73.472656 7.3125 -74.0625 7.3125 -74.0625 C 7.3125 -74.0625 7.671875 -74.195312 8.390625 -74.46875 C 9.109375 -74.738281 10.3125 -74.875 12 -74.875 C 15.488281 -74.875 17.609375 -74.179688 18.359375 -72.796875 C 19.109375 -71.410156 19.210938 -69.125 18.671875 -65.9375 L 9.828125 -15.78125 C 9.410156 -13.132812 9.546875 -11.148438 10.234375 -9.828125 C 10.929688 -8.503906 12.085938 -7.84375 13.703125 -7.84375 C 15.515625 -7.84375 17.351562 -8.550781 19.21875 -9.96875 C 21.082031 -11.382812 22.582031 -13.296875 23.71875 -15.703125 C 24.320312 -15.703125 24.789062 -15.519531 25.125 -15.15625 C 25.457031 -14.789062 25.5625 -14.1875 25.4375 -13.34375 C 25.195312 -12.144531 24.609375 -10.789062 23.671875 -9.28125 C 22.742188 -7.78125 21.523438 -6.320312 20.015625 -4.90625 C 18.515625 -3.5 16.800781 -2.328125 14.875 -1.390625 C 12.957031 -0.460938 10.914062 0 8.75 0 C 5.625 0 3.082031 -0.972656 1.125 -2.921875 C -0.820312 -4.878906 -1.796875 -7.664062 -1.796875 -11.28125 C -1.796875 -12.175781 -1.734375 -13.375 -1.609375 -14.875 C -1.492188 -16.382812 -1.289062 -18.039062 -1 -19.84375 Z M -1 -19.84375 "/></g></g></g><g fill="#1a182c" fill-opacity="1"><g transform="translate(278.921904, 96.08276)"><g><path d="M 22.28125 -45.09375 C 27.570312 -45.09375 31.660156 -43.515625 34.546875 -40.359375 C 37.429688 -37.203125 38.875 -33.039062 38.875 -27.875 C 38.875 -26.90625 38.828125 -25.941406 38.734375 -24.984375 C 38.648438 -24.023438 38.546875 -23.09375 38.421875 -22.1875 C 40.710938 -22.550781 42.664062 -23.300781 44.28125 -24.4375 C 45.90625 -25.582031 47.15625 -26.664062 48.03125 -27.6875 C 48.90625 -28.707031 49.34375 -29.21875 49.34375 -29.21875 C 50.601562 -29.21875 51.144531 -28.46875 50.96875 -26.96875 C 50.78125 -25.945312 50.070312 -24.789062 48.84375 -23.5 C 47.613281 -22.207031 46.019531 -21.046875 44.0625 -20.015625 C 42.101562 -18.992188 39.925781 -18.335938 37.53125 -18.046875 C 36.019531 -12.691406 33.234375 -8.34375 29.171875 -5 C 25.117188 -1.664062 20.023438 0 13.890625 0 C 9.140625 0 5.1875 -1.472656 2.03125 -4.421875 C -1.125 -7.367188 -2.703125 -11.640625 -2.703125 -17.234375 C -2.703125 -22.703125 -1.695312 -27.523438 0.3125 -31.703125 C 2.332031 -35.878906 5.21875 -39.15625 8.96875 -41.53125 C 12.726562 -43.90625 17.164062 -45.09375 22.28125 -45.09375 Z M 22.640625 -27.609375 C 22.640625 -29.171875 23.03125 -30.503906 23.8125 -31.609375 C 24.59375 -32.722656 25.734375 -33.429688 27.234375 -33.734375 C 26.753906 -38.367188 24.800781 -40.6875 21.375 -40.6875 C 19.15625 -40.6875 16.960938 -39.363281 14.796875 -36.71875 C 12.628906 -34.070312 10.914062 -29.378906 9.65625 -22.640625 C 9.414062 -21.492188 9.21875 -19.941406 9.0625 -17.984375 C 8.914062 -16.035156 8.84375 -14.488281 8.84375 -13.34375 C 8.84375 -10.519531 9.367188 -8.34375 10.421875 -6.8125 C 11.472656 -5.28125 12.929688 -4.515625 14.796875 -4.515625 C 17.253906 -4.515625 19.460938 -5.820312 21.421875 -8.4375 C 23.378906 -11.050781 24.925781 -15.0625 26.0625 -20.46875 C 23.78125 -22.21875 22.640625 -24.597656 22.640625 -27.609375 Z M 22.640625 -27.609375 "/></g></g></g><g fill="#1a182c" fill-opacity="1"><g transform="translate(326.816436, 96.08276)"><g><path d="M -0.546875 -45.09375 L 3.703125 -45.09375 L 4.59375 -49.96875 C 5.132812 -52.800781 5.285156 -54.800781 5.046875 -55.96875 C 4.804688 -57.144531 4.6875 -57.734375 4.6875 -57.734375 C 4.6875 -57.734375 5.046875 -57.867188 5.765625 -58.140625 C 6.492188 -58.410156 7.695312 -58.546875 9.375 -58.546875 C 12.863281 -58.546875 15 -57.851562 15.78125 -56.46875 C 16.5625 -55.082031 16.65625 -52.796875 16.0625 -49.609375 L 15.25 -45.09375 L 24.171875 -45.09375 C 24.171875 -45.09375 24.273438 -44.925781 24.484375 -44.59375 C 24.703125 -44.269531 24.8125 -43.804688 24.8125 -43.203125 C 24.8125 -42.421875 24.550781 -41.789062 24.03125 -41.3125 C 23.519531 -40.832031 22.753906 -40.59375 21.734375 -40.59375 L 14.4375 -40.59375 L 10.109375 -15.78125 C 9.679688 -13.320312 9.90625 -11.382812 10.78125 -9.96875 C 11.65625 -8.550781 13.144531 -7.84375 15.25 -7.84375 C 17.832031 -7.84375 20.039062 -8.6875 21.875 -10.375 C 23.707031 -12.0625 25.101562 -13.835938 26.0625 -15.703125 C 26.664062 -15.703125 27.132812 -15.503906 27.46875 -15.109375 C 27.800781 -14.710938 27.875 -14.125 27.6875 -13.34375 C 27.269531 -11.539062 26.234375 -9.601562 24.578125 -7.53125 C 22.921875 -5.457031 20.875 -3.679688 18.4375 -2.203125 C 16.007812 -0.734375 13.351562 0 10.46875 0 C 7.15625 0 4.34375 -1.082031 2.03125 -3.25 C -0.28125 -5.414062 -1.4375 -8.300781 -1.4375 -11.90625 C -1.4375 -12.925781 -1.375 -14.21875 -1.25 -15.78125 C -1.132812 -17.34375 -0.867188 -19.269531 -0.453125 -21.5625 L 2.890625 -40.59375 L -2.984375 -40.59375 C -2.984375 -40.59375 -3.085938 -40.753906 -3.296875 -41.078125 C -3.503906 -41.410156 -3.609375 -41.878906 -3.609375 -42.484375 C -3.609375 -43.265625 -3.335938 -43.894531 -2.796875 -44.375 C -2.253906 -44.851562 -1.503906 -45.09375 -0.546875 -45.09375 Z M -0.546875 -45.09375 "/></g></g></g></g></g></svg>