<svg xmlns="http://www.w3.org/2000/svg" xmlns:xlink="http://www.w3.org/1999/xlink" width="500" zoomAndPan="magnify" viewBox="0 0 375 374.999991" height="500" preserveAspectRatio="xMidYMid meet" version="1.0"><defs><g/></defs><g fill="#f83758" fill-opacity="1"><g transform="translate(0.924818, 219.238205)"><g><path d="M 16.8125 0 L 2.265625 -64.875 L 17.59375 -64.875 L 27.234375 -12.1875 L 28.21875 -12.1875 L 39.515625 -64.875 L 57.40625 -64.875 L 68.8125 -12.1875 L 69.796875 -12.1875 L 79.515625 -64.875 L 94.0625 -64.875 L 79.328125 0 L 59.5625 0 L 48.65625 -52.484375 L 47.875 -52.484375 L 36.953125 0 Z M 16.8125 0 "/></g></g></g><g fill="#f83758" fill-opacity="1"><g transform="translate(91.652255, 219.238205)"><g><path d="M 29.78125 1.375 C 24.601562 1.375 20.046875 0.34375 16.109375 -1.71875 C 12.179688 -3.78125 9.101562 -6.828125 6.875 -10.859375 C 4.644531 -14.890625 3.53125 -19.921875 3.53125 -25.953125 C 3.53125 -31.984375 4.660156 -36.992188 6.921875 -40.984375 C 9.191406 -44.984375 12.289062 -47.984375 16.21875 -49.984375 C 20.144531 -51.984375 24.632812 -52.984375 29.6875 -52.984375 C 34.863281 -52.984375 39.414062 -51.96875 43.34375 -49.9375 C 47.28125 -47.90625 50.378906 -44.875 52.640625 -40.84375 C 54.898438 -36.8125 56.03125 -31.78125 56.03125 -25.75 C 56.03125 -19.59375 54.882812 -14.515625 52.59375 -10.515625 C 50.300781 -6.515625 47.15625 -3.53125 43.15625 -1.5625 C 39.15625 0.394531 34.695312 1.375 29.78125 1.375 Z M 30.171875 -9.140625 C 31.742188 -9.140625 33.21875 -9.398438 34.59375 -9.921875 C 35.976562 -10.453125 37.207031 -11.320312 38.28125 -12.53125 C 39.363281 -13.738281 40.21875 -15.375 40.84375 -17.4375 C 41.46875 -19.507812 41.78125 -22.019531 41.78125 -24.96875 C 41.78125 -28.113281 41.4375 -30.765625 40.75 -32.921875 C 40.0625 -35.085938 39.140625 -36.84375 37.984375 -38.1875 C 36.835938 -39.53125 35.507812 -40.492188 34 -41.078125 C 32.5 -41.671875 30.929688 -41.96875 29.296875 -41.96875 C 27.785156 -41.96875 26.328125 -41.707031 24.921875 -41.1875 C 23.515625 -40.664062 22.285156 -39.796875 21.234375 -38.578125 C 20.179688 -37.367188 19.328125 -35.75 18.671875 -33.71875 C 18.015625 -31.6875 17.6875 -29.160156 17.6875 -26.140625 C 17.6875 -22.992188 18.015625 -20.335938 18.671875 -18.171875 C 19.328125 -16.015625 20.242188 -14.265625 21.421875 -12.921875 C 22.609375 -11.578125 23.953125 -10.609375 25.453125 -10.015625 C 26.960938 -9.429688 28.535156 -9.140625 30.171875 -9.140625 Z M 30.171875 -9.140625 "/></g></g></g><g fill="#f83758" fill-opacity="1"><g transform="translate(145.616661, 219.238205)"><g><path d="M 29.78125 1.375 C 24.601562 1.375 20.046875 0.34375 16.109375 -1.71875 C 12.179688 -3.78125 9.101562 -6.828125 6.875 -10.859375 C 4.644531 -14.890625 3.53125 -19.921875 3.53125 -25.953125 C 3.53125 -31.984375 4.660156 -36.992188 6.921875 -40.984375 C 9.191406 -44.984375 12.289062 -47.984375 16.21875 -49.984375 C 20.144531 -51.984375 24.632812 -52.984375 29.6875 -52.984375 C 34.863281 -52.984375 39.414062 -51.96875 43.34375 -49.9375 C 47.28125 -47.90625 50.378906 -44.875 52.640625 -40.84375 C 54.898438 -36.8125 56.03125 -31.78125 56.03125 -25.75 C 56.03125 -19.59375 54.882812 -14.515625 52.59375 -10.515625 C 50.300781 -6.515625 47.15625 -3.53125 43.15625 -1.5625 C 39.15625 0.394531 34.695312 1.375 29.78125 1.375 Z M 30.171875 -9.140625 C 31.742188 -9.140625 33.21875 -9.398438 34.59375 -9.921875 C 35.976562 -10.453125 37.207031 -11.320312 38.28125 -12.53125 C 39.363281 -13.738281 40.21875 -15.375 40.84375 -17.4375 C 41.46875 -19.507812 41.78125 -22.019531 41.78125 -24.96875 C 41.78125 -28.113281 41.4375 -30.765625 40.75 -32.921875 C 40.0625 -35.085938 39.140625 -36.84375 37.984375 -38.1875 C 36.835938 -39.53125 35.507812 -40.492188 34 -41.078125 C 32.5 -41.671875 30.929688 -41.96875 29.296875 -41.96875 C 27.785156 -41.96875 26.328125 -41.707031 24.921875 -41.1875 C 23.515625 -40.664062 22.285156 -39.796875 21.234375 -38.578125 C 20.179688 -37.367188 19.328125 -35.75 18.671875 -33.71875 C 18.015625 -31.6875 17.6875 -29.160156 17.6875 -26.140625 C 17.6875 -22.992188 18.015625 -20.335938 18.671875 -18.171875 C 19.328125 -16.015625 20.242188 -14.265625 21.421875 -12.921875 C 22.609375 -11.578125 23.953125 -10.609375 25.453125 -10.015625 C 26.960938 -9.429688 28.535156 -9.140625 30.171875 -9.140625 Z M 30.171875 -9.140625 "/></g></g></g><g fill="#f83758" fill-opacity="1"><g transform="translate(199.581054, 219.238205)"><g><path d="M 36.671875 1.375 C 31.617188 1.375 27.109375 0.65625 23.140625 -0.78125 C 19.179688 -2.226562 15.820312 -4.359375 13.0625 -7.171875 C 10.3125 -9.992188 8.21875 -13.46875 6.78125 -17.59375 C 5.34375 -21.71875 4.625 -26.4375 4.625 -31.75 C 4.625 -37.25 5.359375 -42.113281 6.828125 -46.34375 C 8.304688 -50.570312 10.421875 -54.175781 13.171875 -57.15625 C 15.921875 -60.132812 19.195312 -62.394531 23 -63.9375 C 26.800781 -65.476562 31.0625 -66.25 35.78125 -66.25 C 39.445312 -66.25 42.820312 -65.753906 45.90625 -64.765625 C 48.988281 -63.785156 51.640625 -62.394531 53.859375 -60.59375 C 56.085938 -58.789062 57.820312 -56.59375 59.0625 -54 C 60.3125 -51.414062 60.9375 -48.519531 60.9375 -45.3125 L 47.875 -41.96875 C 47.875 -44.789062 47.28125 -47.132812 46.09375 -49 C 44.914062 -50.863281 43.375 -52.269531 41.46875 -53.21875 C 39.570312 -54.175781 37.507812 -54.65625 35.28125 -54.65625 C 33.320312 -54.65625 31.40625 -54.257812 29.53125 -53.46875 C 27.664062 -52.6875 25.960938 -51.425781 24.421875 -49.6875 C 22.878906 -47.945312 21.664062 -45.6875 20.78125 -42.90625 C 19.90625 -40.125 19.46875 -36.703125 19.46875 -32.640625 C 19.46875 -27.390625 20.21875 -23.109375 21.71875 -19.796875 C 23.226562 -16.492188 25.3125 -14.070312 27.96875 -12.53125 C 30.625 -10.988281 33.617188 -10.21875 36.953125 -10.21875 C 40.492188 -10.21875 43.265625 -10.953125 45.265625 -12.421875 C 47.265625 -13.898438 48.707031 -15.816406 49.59375 -18.171875 C 50.476562 -20.535156 50.953125 -23.03125 51.015625 -25.65625 L 63.5 -23.6875 C 63.4375 -20.21875 62.925781 -16.957031 61.96875 -13.90625 C 61.019531 -10.863281 59.476562 -8.191406 57.34375 -5.890625 C 55.21875 -3.597656 52.453125 -1.8125 49.046875 -0.53125 C 45.640625 0.738281 41.515625 1.375 36.671875 1.375 Z M 36.671875 1.375 "/></g></g></g><g fill="#f83758" fill-opacity="1"><g transform="translate(260.426265, 219.238205)"><g><path d="M 6.296875 0 L 6.296875 -70.078125 L 20.25 -70.078125 L 20.25 0 Z M 6.296875 0 "/></g></g></g><g fill="#f83758" fill-opacity="1"><g transform="translate(281.362909, 219.238205)"><g><path d="M 29.78125 1.375 C 24.601562 1.375 20.046875 0.34375 16.109375 -1.71875 C 12.179688 -3.78125 9.101562 -6.828125 6.875 -10.859375 C 4.644531 -14.890625 3.53125 -19.921875 3.53125 -25.953125 C 3.53125 -31.984375 4.660156 -36.992188 6.921875 -40.984375 C 9.191406 -44.984375 12.289062 -47.984375 16.21875 -49.984375 C 20.144531 -51.984375 24.632812 -52.984375 29.6875 -52.984375 C 34.863281 -52.984375 39.414062 -51.96875 43.34375 -49.9375 C 47.28125 -47.90625 50.378906 -44.875 52.640625 -40.84375 C 54.898438 -36.8125 56.03125 -31.78125 56.03125 -25.75 C 56.03125 -19.59375 54.882812 -14.515625 52.59375 -10.515625 C 50.300781 -6.515625 47.15625 -3.53125 43.15625 -1.5625 C 39.15625 0.394531 34.695312 1.375 29.78125 1.375 Z M 30.171875 -9.140625 C 31.742188 -9.140625 33.21875 -9.398438 34.59375 -9.921875 C 35.976562 -10.453125 37.207031 -11.320312 38.28125 -12.53125 C 39.363281 -13.738281 40.21875 -15.375 40.84375 -17.4375 C 41.46875 -19.507812 41.78125 -22.019531 41.78125 -24.96875 C 41.78125 -28.113281 41.4375 -30.765625 40.75 -32.921875 C 40.0625 -35.085938 39.140625 -36.84375 37.984375 -38.1875 C 36.835938 -39.53125 35.507812 -40.492188 34 -41.078125 C 32.5 -41.671875 30.929688 -41.96875 29.296875 -41.96875 C 27.785156 -41.96875 26.328125 -41.707031 24.921875 -41.1875 C 23.515625 -40.664062 22.285156 -39.796875 21.234375 -38.578125 C 20.179688 -37.367188 19.328125 -35.75 18.671875 -33.71875 C 18.015625 -31.6875 17.6875 -29.160156 17.6875 -26.140625 C 17.6875 -22.992188 18.015625 -20.335938 18.671875 -18.171875 C 19.328125 -16.015625 20.242188 -14.265625 21.421875 -12.921875 C 22.609375 -11.578125 23.953125 -10.609375 25.453125 -10.015625 C 26.960938 -9.429688 28.535156 -9.140625 30.171875 -9.140625 Z M 30.171875 -9.140625 "/></g></g></g><g fill="#f83758" fill-opacity="1"><g transform="translate(335.327314, 219.238205)"><g><path d="M 25.5625 1.171875 C 22.738281 1.171875 20.28125 0.8125 18.1875 0.09375 C 16.09375 -0.625 14.335938 -1.753906 12.921875 -3.296875 C 11.515625 -4.835938 10.453125 -6.816406 9.734375 -9.234375 C 9.015625 -11.660156 8.65625 -14.546875 8.65625 -17.890625 L 8.65625 -40.5 L 1.28125 -40.5 L 1.578125 -51.40625 L 6.296875 -51.40625 C 8.453125 -51.46875 10.054688 -51.84375 11.109375 -52.53125 C 12.160156 -53.226562 12.78125 -54.457031 12.96875 -56.21875 L 14.15625 -63.109375 L 22.21875 -63.109375 L 22.21875 -51.609375 L 35.1875 -51.609375 L 35.1875 -40.109375 L 22.21875 -40.109375 L 22.21875 -18.578125 C 22.21875 -15.890625 22.867188 -14.085938 24.171875 -13.171875 C 25.484375 -12.253906 27.09375 -11.796875 29 -11.796875 C 30.175781 -11.796875 31.351562 -11.941406 32.53125 -12.234375 C 33.71875 -12.535156 34.734375 -12.945312 35.578125 -13.46875 L 35.578125 -0.296875 C 33.546875 0.296875 31.675781 0.6875 29.96875 0.875 C 28.269531 1.070312 26.800781 1.171875 25.5625 1.171875 Z M 25.5625 1.171875 "/></g></g></g></svg>