<svg xmlns="http://www.w3.org/2000/svg" xmlns:xlink="http://www.w3.org/1999/xlink" width="500" zoomAndPan="magnify" viewBox="0 0 375 374.999991" height="500" preserveAspectRatio="xMidYMid meet" version="1.0"><defs><g/><clipPath id="7362c8e5b5"><rect x="0" width="338" y="0" height="100"/></clipPath></defs><g transform="matrix(1, 0, 0, 1, 18, 137)"><g clip-path="url(#7362c8e5b5)"><g fill="#f83758" fill-opacity="1"><g transform="translate(0.879313, 74.793067)"><g><path d="M 87.28125 -62.8125 C 88.070312 -61.238281 88.566406 -59.46875 88.765625 -57.5 C 88.960938 -55.539062 89.0625 -53.738281 89.0625 -52.09375 C 89.0625 -46.59375 88.421875 -41.269531 87.140625 -36.125 C 85.859375 -30.976562 84.070312 -26.207031 81.78125 -21.8125 C 79.488281 -17.425781 76.847656 -13.609375 73.859375 -10.359375 C 70.878906 -7.117188 67.671875 -4.582031 64.234375 -2.75 C 60.796875 -0.914062 57.304688 0 53.765625 0 C 51.015625 0 48.539062 -0.570312 46.34375 -1.71875 C 44.144531 -2.863281 42.359375 -4.550781 40.984375 -6.78125 C 38.429688 -4.613281 35.78125 -2.941406 33.03125 -1.765625 C 30.28125 -0.585938 27.492188 0 24.671875 0 C 20.015625 0 16.210938 -1.601562 13.265625 -4.8125 C 10.316406 -8.03125 8.84375 -12.816406 8.84375 -19.171875 L 8.84375 -62.3125 C 8.84375 -63.957031 8.269531 -65.351562 7.125 -66.5 C 5.976562 -67.644531 4.585938 -68.21875 2.953125 -68.21875 L 2.953125 -68.8125 L 24.375 -68.8125 C 25.550781 -68.8125 26.140625 -68.1875 26.140625 -66.9375 L 26.140625 -6.578125 C 26.140625 -5.335938 26.613281 -4.242188 27.5625 -3.296875 C 28.519531 -2.347656 29.617188 -1.875 30.859375 -1.875 C 31.390625 -1.875 31.984375 -2.003906 32.640625 -2.265625 C 35.328125 -3.304688 38.007812 -4.976562 40.6875 -7.28125 C 39.84375 -8.78125 39.171875 -10.53125 38.671875 -12.53125 C 38.179688 -14.53125 37.9375 -16.742188 37.9375 -19.171875 L 37.9375 -62.3125 C 37.9375 -63.957031 37.363281 -65.351562 36.21875 -66.5 C 35.070312 -67.644531 33.679688 -68.21875 32.046875 -68.21875 L 32.046875 -68.8125 L 53.46875 -68.8125 C 54.65625 -68.8125 55.25 -68.1875 55.25 -66.9375 L 55.25 -6.578125 C 55.25 -5.335938 55.722656 -4.242188 56.671875 -3.296875 C 57.617188 -2.347656 58.71875 -1.875 59.96875 -1.875 C 60.488281 -1.875 61.078125 -2.003906 61.734375 -2.265625 C 67.628906 -4.679688 72.90625 -9.265625 77.5625 -16.015625 C 80.050781 -19.617188 82.144531 -23.566406 83.84375 -27.859375 C 85.550781 -32.160156 86.765625 -36.601562 87.484375 -41.1875 C 87.878906 -43.414062 87.847656 -45.234375 87.390625 -46.640625 C 86.929688 -48.046875 85.785156 -48.75 83.953125 -48.75 C 82.835938 -48.75 81.867188 -48.582031 81.046875 -48.25 C 80.222656 -47.925781 79.15625 -47.765625 77.84375 -47.765625 C 74.96875 -47.765625 72.492188 -48.796875 70.421875 -50.859375 C 68.359375 -52.929688 67.328125 -55.410156 67.328125 -58.296875 C 67.328125 -61.171875 68.359375 -63.640625 70.421875 -65.703125 C 72.492188 -67.773438 74.96875 -68.8125 77.84375 -68.8125 C 79.945312 -68.8125 81.832031 -68.253906 83.5 -67.140625 C 85.175781 -66.023438 86.4375 -64.582031 87.28125 -62.8125 Z M 87.28125 -62.8125 "/></g></g></g><g fill="#f83758" fill-opacity="1"><g transform="translate(87.27701, 74.793067)"><g><path d="M 25.859375 -49.25 C 29.984375 -49.25 33.734375 -48.132812 37.109375 -45.90625 C 40.484375 -43.675781 43.1875 -40.675781 45.21875 -36.90625 C 47.25 -33.144531 48.265625 -28.96875 48.265625 -24.375 C 48.265625 -19.789062 47.25 -15.613281 45.21875 -11.84375 C 43.1875 -8.070312 40.484375 -5.070312 37.109375 -2.84375 C 33.734375 -0.625 29.984375 0.484375 25.859375 0.484375 C 21.722656 0.484375 17.96875 -0.625 14.59375 -2.84375 C 11.21875 -5.070312 8.515625 -8.070312 6.484375 -11.84375 C 4.453125 -15.613281 3.4375 -19.789062 3.4375 -24.375 C 3.4375 -28.96875 4.453125 -33.144531 6.484375 -36.90625 C 8.515625 -40.675781 11.21875 -43.675781 14.59375 -45.90625 C 17.96875 -48.132812 21.722656 -49.25 25.859375 -49.25 Z M 25.859375 -0.09375 C 30.898438 -0.09375 33.421875 -8.1875 33.421875 -24.375 C 33.421875 -40.5625 30.898438 -48.65625 25.859375 -48.65625 C 20.742188 -48.65625 18.1875 -40.5625 18.1875 -24.375 C 18.1875 -8.1875 20.742188 -0.09375 25.859375 -0.09375 Z M 25.859375 -0.09375 "/></g></g></g><g fill="#f83758" fill-opacity="1"><g transform="translate(133.375039, 74.793067)"><g><path d="M 25.859375 -49.25 C 29.984375 -49.25 33.734375 -48.132812 37.109375 -45.90625 C 40.484375 -43.675781 43.1875 -40.675781 45.21875 -36.90625 C 47.25 -33.144531 48.265625 -28.96875 48.265625 -24.375 C 48.265625 -19.789062 47.25 -15.613281 45.21875 -11.84375 C 43.1875 -8.070312 40.484375 -5.070312 37.109375 -2.84375 C 33.734375 -0.625 29.984375 0.484375 25.859375 0.484375 C 21.722656 0.484375 17.96875 -0.625 14.59375 -2.84375 C 11.21875 -5.070312 8.515625 -8.070312 6.484375 -11.84375 C 4.453125 -15.613281 3.4375 -19.789062 3.4375 -24.375 C 3.4375 -28.96875 4.453125 -33.144531 6.484375 -36.90625 C 8.515625 -40.675781 11.21875 -43.675781 14.59375 -45.90625 C 17.96875 -48.132812 21.722656 -49.25 25.859375 -49.25 Z M 25.859375 -0.09375 C 30.898438 -0.09375 33.421875 -8.1875 33.421875 -24.375 C 33.421875 -40.5625 30.898438 -48.65625 25.859375 -48.65625 C 20.742188 -48.65625 18.1875 -40.5625 18.1875 -24.375 C 18.1875 -8.1875 20.742188 -0.09375 25.859375 -0.09375 Z M 25.859375 -0.09375 "/></g></g></g><g fill="#f83758" fill-opacity="1"><g transform="translate(179.473068, 74.793067)"><g><path d="M 34.890625 -68.21875 C 32.992188 -68.21875 31.128906 -67.019531 29.296875 -64.625 C 27.460938 -62.238281 25.953125 -59.03125 24.765625 -55 C 23.585938 -50.96875 23 -46.523438 23 -41.671875 C 23 -37.148438 23.585938 -32.921875 24.765625 -28.984375 C 25.953125 -25.054688 27.609375 -21.601562 29.734375 -18.625 C 31.859375 -15.644531 34.3125 -13.300781 37.09375 -11.59375 C 39.882812 -9.894531 42.851562 -9.046875 46 -9.046875 C 48.6875 -9.046875 51.304688 -9.71875 53.859375 -11.0625 C 56.421875 -12.40625 58.6875 -14.191406 60.65625 -16.421875 L 61.140625 -16.125 C 58.390625 -11.269531 54.703125 -7.367188 50.078125 -4.421875 C 45.460938 -1.472656 40.398438 0 34.890625 0 C 30.628906 0 26.628906 -0.882812 22.890625 -2.65625 C 19.160156 -4.425781 15.867188 -6.898438 13.015625 -10.078125 C 10.171875 -13.253906 7.945312 -16.921875 6.34375 -21.078125 C 4.738281 -25.242188 3.9375 -29.6875 3.9375 -34.40625 C 3.9375 -39.125 4.738281 -43.5625 6.34375 -47.71875 C 7.945312 -51.882812 10.171875 -55.554688 13.015625 -58.734375 C 15.867188 -61.910156 19.160156 -64.382812 22.890625 -66.15625 C 26.628906 -67.925781 30.628906 -68.8125 34.890625 -68.8125 C 38.367188 -68.8125 41.679688 -68.21875 44.828125 -67.03125 C 47.972656 -65.851562 50.769531 -64.3125 53.21875 -62.40625 C 55.675781 -60.507812 57.609375 -58.445312 59.015625 -56.21875 C 60.429688 -54 61.140625 -51.804688 61.140625 -49.640625 C 61.140625 -46.753906 60.109375 -44.28125 58.046875 -42.21875 C 55.984375 -40.15625 53.507812 -39.125 50.625 -39.125 C 47.738281 -39.125 45.265625 -40.15625 43.203125 -42.21875 C 41.140625 -44.28125 40.109375 -46.753906 40.109375 -49.640625 C 40.109375 -51.410156 40.398438 -52.851562 40.984375 -53.96875 C 41.578125 -55.082031 42.25 -56.0625 43 -56.90625 C 43.757812 -57.757812 44.429688 -58.628906 45.015625 -59.515625 C 45.609375 -60.398438 45.90625 -61.429688 45.90625 -62.609375 C 45.90625 -64.179688 45.21875 -65.378906 43.84375 -66.203125 C 42.46875 -67.023438 40.910156 -67.566406 39.171875 -67.828125 C 37.429688 -68.085938 36.003906 -68.21875 34.890625 -68.21875 Z M 34.890625 -68.21875 "/></g></g></g><g fill="#f83758" fill-opacity="1"><g transform="translate(238.938794, 74.793067)"><g><path d="M 21.234375 -67.03125 L 21.234375 -5.40625 C 21.234375 -4.226562 21.625 -3.179688 22.40625 -2.265625 C 23.195312 -1.347656 24.148438 -0.789062 25.265625 -0.59375 L 25.265625 0 L 2.453125 0 L 2.453125 -0.59375 C 3.566406 -0.789062 4.515625 -1.347656 5.296875 -2.265625 C 6.085938 -3.179688 6.484375 -4.226562 6.484375 -5.40625 L 6.484375 -60.9375 C 6.484375 -62.125 6.085938 -63.175781 5.296875 -64.09375 C 4.515625 -65.007812 3.566406 -65.566406 2.453125 -65.765625 L 2.453125 -66.34375 L 19.265625 -68.8125 C 19.328125 -68.8125 19.375 -68.8125 19.40625 -68.8125 C 19.445312 -68.8125 19.5 -68.8125 19.5625 -68.8125 C 20.675781 -68.8125 21.234375 -68.21875 21.234375 -67.03125 Z M 21.234375 -67.03125 "/></g></g></g><g fill="#f83758" fill-opacity="1"><g transform="translate(261.053618, 74.793067)"><g><path d="M 25.859375 -49.25 C 29.984375 -49.25 33.734375 -48.132812 37.109375 -45.90625 C 40.484375 -43.675781 43.1875 -40.675781 45.21875 -36.90625 C 47.25 -33.144531 48.265625 -28.96875 48.265625 -24.375 C 48.265625 -19.789062 47.25 -15.613281 45.21875 -11.84375 C 43.1875 -8.070312 40.484375 -5.070312 37.109375 -2.84375 C 33.734375 -0.625 29.984375 0.484375 25.859375 0.484375 C 21.722656 0.484375 17.96875 -0.625 14.59375 -2.84375 C 11.21875 -5.070312 8.515625 -8.070312 6.484375 -11.84375 C 4.453125 -15.613281 3.4375 -19.789062 3.4375 -24.375 C 3.4375 -28.96875 4.453125 -33.144531 6.484375 -36.90625 C 8.515625 -40.675781 11.21875 -43.675781 14.59375 -45.90625 C 17.96875 -48.132812 21.722656 -49.25 25.859375 -49.25 Z M 25.859375 -0.09375 C 30.898438 -0.09375 33.421875 -8.1875 33.421875 -24.375 C 33.421875 -40.5625 30.898438 -48.65625 25.859375 -48.65625 C 20.742188 -48.65625 18.1875 -40.5625 18.1875 -24.375 C 18.1875 -8.1875 20.742188 -0.09375 25.859375 -0.09375 Z M 25.859375 -0.09375 "/></g></g></g><g fill="#f83758" fill-opacity="1"><g transform="translate(307.151635, 74.793067)"><g><path d="M 26.546875 -3.53125 C 27.660156 -3.53125 28.640625 -3.828125 29.484375 -4.421875 L 29.484375 -3.734375 C 28.304688 -2.878906 26.703125 -1.960938 24.671875 -0.984375 C 22.640625 -0.00390625 20.25 0.484375 17.5 0.484375 C 14.476562 0.484375 11.882812 -0.59375 9.71875 -2.75 C 7.5625 -4.914062 6.484375 -7.503906 6.484375 -10.515625 L 6.484375 -47.671875 L 2.453125 -47.671875 L 2.453125 -48.265625 C 6.128906 -48.265625 9.554688 -49.066406 12.734375 -50.671875 C 15.910156 -52.273438 18.546875 -54.421875 20.640625 -57.109375 L 21.234375 -57.109375 L 21.234375 -48.265625 L 27.625 -48.265625 L 27.625 -47.671875 L 21.234375 -47.671875 L 21.234375 -8.84375 C 21.234375 -7.40625 21.753906 -6.160156 22.796875 -5.109375 C 23.847656 -4.054688 25.097656 -3.53125 26.546875 -3.53125 Z M 26.546875 -3.53125 "/></g></g></g></g></g></svg>