<svg xmlns="http://www.w3.org/2000/svg" xmlns:xlink="http://www.w3.org/1999/xlink" width="500" zoomAndPan="magnify" viewBox="0 0 375 374.999991" height="500" preserveAspectRatio="xMidYMid meet" version="1.0"><defs><g/><clipPath id="08a47de885"><rect x="0" width="360" y="0" height="148"/></clipPath></defs><g transform="matrix(1, 0, 0, 1, 9, 114)"><g clip-path="url(#08a47de885)"><g fill="#ffffff" fill-opacity="1"><g transform="translate(0.72622, 110.259535)"><g><path d="M 72.625 -66.09375 C 72.625 -61.59375 72.320312 -57.144531 71.71875 -52.75 C 71.125 -48.351562 70.410156 -44.019531 69.578125 -39.75 C 69.359375 -38.625 69.019531 -36.800781 68.5625 -34.28125 C 68.113281 -31.769531 67.570312 -28.972656 66.9375 -25.890625 C 66.300781 -22.816406 65.53125 -19.628906 64.625 -16.328125 C 63.726562 -13.023438 62.734375 -10.019531 61.640625 -7.3125 C 60.554688 -4.613281 59.359375 -2.378906 58.046875 -0.609375 C 56.734375 1.148438 55.320312 2.03125 53.8125 2.03125 C 52.3125 2.03125 50.867188 1.28125 49.484375 -0.21875 C 48.097656 -1.726562 46.820312 -3.625 45.65625 -5.90625 C 44.488281 -8.195312 43.414062 -10.769531 42.4375 -13.625 C 41.46875 -16.476562 40.625 -19.234375 39.90625 -21.890625 C 39.195312 -24.554688 38.597656 -27 38.109375 -29.21875 C 37.617188 -31.4375 37.265625 -33.109375 37.046875 -34.234375 C 36.742188 -33.253906 36.269531 -31.691406 35.625 -29.546875 C 34.988281 -27.410156 34.179688 -25.007812 33.203125 -22.34375 C 32.234375 -19.6875 31.148438 -16.96875 29.953125 -14.1875 C 28.753906 -11.40625 27.492188 -8.851562 26.171875 -6.53125 C 24.859375 -4.207031 23.488281 -2.289062 22.0625 -0.78125 C 20.632812 0.71875 19.210938 1.46875 17.796875 1.46875 C 15.910156 1.46875 14.253906 0.644531 12.828125 -1 C 11.410156 -2.65625 10.210938 -4.78125 9.234375 -7.375 C 8.253906 -9.96875 7.425781 -12.859375 6.75 -16.046875 C 6.082031 -19.234375 5.554688 -22.382812 5.171875 -25.5 C 4.796875 -28.613281 4.492188 -31.519531 4.265625 -34.21875 C 4.046875 -36.925781 3.898438 -39.066406 3.828125 -40.640625 C 3.597656 -44.242188 3.390625 -47.769531 3.203125 -51.21875 C 3.015625 -54.675781 2.921875 -58.207031 2.921875 -61.8125 C 2.921875 -63.09375 2.957031 -64.835938 3.03125 -67.046875 C 3.113281 -69.265625 3.394531 -71.441406 3.875 -73.578125 C 4.363281 -75.722656 5.113281 -77.597656 6.125 -79.203125 C 7.144531 -80.816406 8.628906 -81.703125 10.578125 -81.859375 C 12.234375 -81.929688 13.660156 -81.253906 14.859375 -79.828125 C 16.054688 -78.398438 17.066406 -76.503906 17.890625 -74.140625 C 18.722656 -71.773438 19.382812 -69.144531 19.875 -66.25 C 20.363281 -63.363281 20.738281 -60.566406 21 -57.859375 C 21.257812 -55.160156 21.425781 -52.6875 21.5 -50.4375 C 21.582031 -48.1875 21.582031 -46.535156 21.5 -45.484375 L 21.390625 -42.5625 C 21.617188 -43.539062 22.015625 -45.078125 22.578125 -47.171875 C 23.140625 -49.273438 23.832031 -51.660156 24.65625 -54.328125 C 25.476562 -56.992188 26.359375 -59.734375 27.296875 -62.546875 C 28.242188 -65.359375 29.238281 -67.925781 30.28125 -70.25 C 31.332031 -72.582031 32.382812 -74.515625 33.4375 -76.046875 C 34.488281 -77.585938 35.503906 -78.398438 36.484375 -78.484375 C 37.753906 -78.554688 38.972656 -77.800781 40.140625 -76.21875 C 41.304688 -74.644531 42.359375 -72.597656 43.296875 -70.078125 C 44.234375 -67.566406 45.078125 -64.769531 45.828125 -61.6875 C 46.578125 -58.613281 47.234375 -55.632812 47.796875 -52.75 C 48.359375 -49.863281 48.789062 -47.253906 49.09375 -44.921875 C 49.394531 -42.597656 49.617188 -40.945312 49.765625 -39.96875 C 49.835938 -41.164062 50.023438 -43.0625 50.328125 -45.65625 C 50.628906 -48.25 51.039062 -51.140625 51.5625 -54.328125 C 52.09375 -57.515625 52.75 -60.78125 53.53125 -64.125 C 54.320312 -67.46875 55.242188 -70.523438 56.296875 -73.296875 C 57.347656 -76.078125 58.546875 -78.347656 59.890625 -80.109375 C 61.242188 -81.867188 62.75 -82.75 64.40625 -82.75 C 66.28125 -82.75 67.78125 -82.128906 68.90625 -80.890625 C 70.03125 -79.660156 70.851562 -78.160156 71.375 -76.390625 C 71.90625 -74.628906 72.242188 -72.789062 72.390625 -70.875 C 72.546875 -68.957031 72.625 -67.363281 72.625 -66.09375 Z M 72.625 -66.09375 "/></g></g></g><g fill="#ffffff" fill-opacity="1"><g transform="translate(74.47083, 110.259535)"><g><path d="M 24.765625 3.265625 C 20.941406 3.265625 17.601562 2.25 14.75 0.21875 C 11.894531 -1.800781 9.488281 -4.382812 7.53125 -7.53125 C 5.582031 -10.6875 4.117188 -14.195312 3.140625 -18.0625 C 2.171875 -21.9375 1.6875 -25.75 1.6875 -29.5 C 1.6875 -33.476562 2.171875 -37.585938 3.140625 -41.828125 C 4.117188 -46.066406 5.625 -49.929688 7.65625 -53.421875 C 9.6875 -56.910156 12.273438 -59.765625 15.421875 -61.984375 C 18.578125 -64.203125 22.332031 -65.3125 26.6875 -65.3125 C 30.882812 -65.3125 34.46875 -64.164062 37.4375 -61.875 C 40.40625 -59.582031 42.789062 -56.726562 44.59375 -53.3125 C 46.394531 -49.894531 47.671875 -46.160156 48.421875 -42.109375 C 49.171875 -38.054688 49.429688 -34.226562 49.203125 -30.625 C 48.972656 -26.644531 48.351562 -22.628906 47.34375 -18.578125 C 46.332031 -14.523438 44.847656 -10.882812 42.890625 -7.65625 C 40.941406 -4.425781 38.46875 -1.800781 35.46875 0.21875 C 32.46875 2.25 28.898438 3.265625 24.765625 3.265625 Z M 25.890625 -47.625 C 24.765625 -47.625 23.769531 -47.023438 22.90625 -45.828125 C 22.050781 -44.628906 21.335938 -43.164062 20.765625 -41.4375 C 20.203125 -39.707031 19.769531 -37.882812 19.46875 -35.96875 C 19.175781 -34.0625 19.03125 -32.394531 19.03125 -30.96875 C 19.03125 -29.164062 19.195312 -27.210938 19.53125 -25.109375 C 19.875 -23.003906 20.34375 -21.066406 20.9375 -19.296875 C 21.539062 -17.535156 22.273438 -16.070312 23.140625 -14.90625 C 24.003906 -13.75 25 -13.171875 26.125 -13.171875 C 27.320312 -13.171875 28.351562 -13.734375 29.21875 -14.859375 C 30.082031 -15.984375 30.773438 -17.410156 31.296875 -19.140625 C 31.828125 -20.867188 32.203125 -22.765625 32.421875 -24.828125 C 32.648438 -26.890625 32.765625 -28.820312 32.765625 -30.625 C 32.765625 -32.28125 32.613281 -34.101562 32.3125 -36.09375 C 32.007812 -38.082031 31.578125 -39.9375 31.015625 -41.65625 C 30.453125 -43.382812 29.738281 -44.8125 28.875 -45.9375 C 28.007812 -47.0625 27.015625 -47.625 25.890625 -47.625 Z M 25.890625 -47.625 "/></g></g></g><g fill="#ffffff" fill-opacity="1"><g transform="translate(126.035762, 110.259535)"><g><path d="M 24.765625 3.265625 C 20.941406 3.265625 17.601562 2.25 14.75 0.21875 C 11.894531 -1.800781 9.488281 -4.382812 7.53125 -7.53125 C 5.582031 -10.6875 4.117188 -14.195312 3.140625 -18.0625 C 2.171875 -21.9375 1.6875 -25.75 1.6875 -29.5 C 1.6875 -33.476562 2.171875 -37.585938 3.140625 -41.828125 C 4.117188 -46.066406 5.625 -49.929688 7.65625 -53.421875 C 9.6875 -56.910156 12.273438 -59.765625 15.421875 -61.984375 C 18.578125 -64.203125 22.332031 -65.3125 26.6875 -65.3125 C 30.882812 -65.3125 34.46875 -64.164062 37.4375 -61.875 C 40.40625 -59.582031 42.789062 -56.726562 44.59375 -53.3125 C 46.394531 -49.894531 47.671875 -46.160156 48.421875 -42.109375 C 49.171875 -38.054688 49.429688 -34.226562 49.203125 -30.625 C 48.972656 -26.644531 48.351562 -22.628906 47.34375 -18.578125 C 46.332031 -14.523438 44.847656 -10.882812 42.890625 -7.65625 C 40.941406 -4.425781 38.46875 -1.800781 35.46875 0.21875 C 32.46875 2.25 28.898438 3.265625 24.765625 3.265625 Z M 25.890625 -47.625 C 24.765625 -47.625 23.769531 -47.023438 22.90625 -45.828125 C 22.050781 -44.628906 21.335938 -43.164062 20.765625 -41.4375 C 20.203125 -39.707031 19.769531 -37.882812 19.46875 -35.96875 C 19.175781 -34.0625 19.03125 -32.394531 19.03125 -30.96875 C 19.03125 -29.164062 19.195312 -27.210938 19.53125 -25.109375 C 19.875 -23.003906 20.34375 -21.066406 20.9375 -19.296875 C 21.539062 -17.535156 22.273438 -16.070312 23.140625 -14.90625 C 24.003906 -13.75 25 -13.171875 26.125 -13.171875 C 27.320312 -13.171875 28.351562 -13.734375 29.21875 -14.859375 C 30.082031 -15.984375 30.773438 -17.410156 31.296875 -19.140625 C 31.828125 -20.867188 32.203125 -22.765625 32.421875 -24.828125 C 32.648438 -26.890625 32.765625 -28.820312 32.765625 -30.625 C 32.765625 -32.28125 32.613281 -34.101562 32.3125 -36.09375 C 32.007812 -38.082031 31.578125 -39.9375 31.015625 -41.65625 C 30.453125 -43.382812 29.738281 -44.8125 28.875 -45.9375 C 28.007812 -47.0625 27.015625 -47.625 25.890625 -47.625 Z M 25.890625 -47.625 "/></g></g></g><g fill="#ffffff" fill-opacity="1"><g transform="translate(177.600694, 110.259535)"><g><path d="M 53.140625 -57.3125 C 53.140625 -55.882812 52.96875 -54.378906 52.625 -52.796875 C 52.289062 -51.222656 51.75 -49.757812 51 -48.40625 C 50.25 -47.0625 49.273438 -45.9375 48.078125 -45.03125 C 46.878906 -44.132812 45.414062 -43.6875 43.6875 -43.6875 C 41.0625 -43.6875 39.109375 -44.15625 37.828125 -45.09375 C 36.554688 -46.03125 35.65625 -47.210938 35.125 -48.640625 C 34.601562 -50.066406 34.320312 -51.585938 34.28125 -53.203125 C 34.25 -54.816406 34.191406 -56.335938 34.109375 -57.765625 C 34.035156 -59.191406 33.789062 -60.375 33.375 -61.3125 C 32.96875 -62.25 32.085938 -62.71875 30.734375 -62.71875 C 29.234375 -62.71875 27.921875 -62.171875 26.796875 -61.078125 C 25.671875 -59.992188 24.691406 -58.585938 23.859375 -56.859375 C 23.035156 -55.128906 22.34375 -53.175781 21.78125 -51 C 21.21875 -48.820312 20.765625 -46.664062 20.421875 -44.53125 C 20.085938 -42.394531 19.847656 -40.367188 19.703125 -38.453125 C 19.554688 -36.535156 19.484375 -34.976562 19.484375 -33.78125 C 19.484375 -32.195312 19.535156 -30.316406 19.640625 -28.140625 C 19.753906 -25.972656 20.113281 -23.894531 20.71875 -21.90625 C 21.320312 -19.914062 22.222656 -18.222656 23.421875 -16.828125 C 24.617188 -15.441406 26.34375 -14.75 28.59375 -14.75 C 30.09375 -14.75 31.554688 -14.9375 32.984375 -15.3125 C 34.410156 -15.6875 35.835938 -16.117188 37.265625 -16.609375 C 38.691406 -17.097656 40.132812 -17.53125 41.59375 -17.90625 C 43.0625 -18.28125 44.546875 -18.46875 46.046875 -18.46875 C 47.773438 -18.46875 49.203125 -17.769531 50.328125 -16.375 C 51.453125 -14.988281 52.015625 -13.429688 52.015625 -11.703125 C 52.015625 -9.304688 51.265625 -7.078125 49.765625 -5.015625 C 48.265625 -2.953125 46.40625 -1.132812 44.1875 0.4375 C 41.976562 2.019531 39.578125 3.257812 36.984375 4.15625 C 34.398438 5.0625 32.054688 5.515625 29.953125 5.515625 C 24.546875 5.515625 19.960938 4.296875 16.203125 1.859375 C 12.453125 -0.578125 9.414062 -3.726562 7.09375 -7.59375 C 4.769531 -11.46875 3.097656 -15.785156 2.078125 -20.546875 C 1.066406 -25.316406 0.5625 -30.066406 0.5625 -34.796875 C 0.5625 -37.941406 0.859375 -41.390625 1.453125 -45.140625 C 2.054688 -48.898438 2.957031 -52.675781 4.15625 -56.46875 C 5.363281 -60.257812 6.882812 -63.914062 8.71875 -67.4375 C 10.5625 -70.96875 12.722656 -74.082031 15.203125 -76.78125 C 17.679688 -79.488281 20.476562 -81.664062 23.59375 -83.3125 C 26.707031 -84.96875 30.140625 -85.796875 33.890625 -85.796875 C 37.566406 -85.796875 40.644531 -84.875 43.125 -83.03125 C 45.601562 -81.195312 47.59375 -78.867188 49.09375 -76.046875 C 50.59375 -73.234375 51.640625 -70.15625 52.234375 -66.8125 C 52.835938 -63.476562 53.140625 -60.3125 53.140625 -57.3125 Z M 53.140625 -57.3125 "/></g></g></g><g fill="#ffffff" fill-opacity="1"><g transform="translate(231.867719, 110.259535)"><g><path d="M 24.4375 -68.234375 C 24.4375 -64.179688 24.265625 -60.109375 23.921875 -56.015625 C 23.585938 -51.921875 23.421875 -47.8125 23.421875 -43.6875 C 23.421875 -38.351562 23.585938 -33.019531 23.921875 -27.6875 C 24.265625 -22.363281 24.4375 -17 24.4375 -11.59375 C 24.4375 -10.25 24.359375 -8.726562 24.203125 -7.03125 C 24.054688 -5.34375 23.703125 -3.785156 23.140625 -2.359375 C 22.578125 -0.929688 21.734375 0.265625 20.609375 1.234375 C 19.484375 2.210938 17.976562 2.703125 16.09375 2.703125 C 14.300781 2.703125 12.742188 1.816406 11.421875 0.046875 C 10.109375 -1.710938 9.019531 -3.960938 8.15625 -6.703125 C 7.300781 -9.441406 6.585938 -12.5 6.015625 -15.875 C 5.453125 -19.25 5.039062 -22.53125 4.78125 -25.71875 C 4.519531 -28.914062 4.332031 -31.84375 4.21875 -34.5 C 4.101562 -37.164062 4.046875 -39.140625 4.046875 -40.421875 C 4.046875 -41.847656 4.101562 -43.910156 4.21875 -46.609375 C 4.332031 -49.316406 4.578125 -52.242188 4.953125 -55.390625 C 5.328125 -58.546875 5.832031 -61.753906 6.46875 -65.015625 C 7.113281 -68.285156 7.957031 -71.253906 9 -73.921875 C 10.050781 -76.585938 11.304688 -78.765625 12.765625 -80.453125 C 14.234375 -82.140625 15.984375 -82.984375 18.015625 -82.984375 C 19.671875 -82.984375 20.925781 -82.4375 21.78125 -81.34375 C 22.644531 -80.257812 23.265625 -78.945312 23.640625 -77.40625 C 24.015625 -75.863281 24.238281 -74.25 24.3125 -72.5625 C 24.394531 -70.875 24.4375 -69.429688 24.4375 -68.234375 Z M 24.4375 -68.234375 "/></g></g></g><g fill="#ffffff" fill-opacity="1"><g transform="translate(261.47815, 110.259535)"><g><path d="M 24.765625 3.265625 C 20.941406 3.265625 17.601562 2.25 14.75 0.21875 C 11.894531 -1.800781 9.488281 -4.382812 7.53125 -7.53125 C 5.582031 -10.6875 4.117188 -14.195312 3.140625 -18.0625 C 2.171875 -21.9375 1.6875 -25.75 1.6875 -29.5 C 1.6875 -33.476562 2.171875 -37.585938 3.140625 -41.828125 C 4.117188 -46.066406 5.625 -49.929688 7.65625 -53.421875 C 9.6875 -56.910156 12.273438 -59.765625 15.421875 -61.984375 C 18.578125 -64.203125 22.332031 -65.3125 26.6875 -65.3125 C 30.882812 -65.3125 34.46875 -64.164062 37.4375 -61.875 C 40.40625 -59.582031 42.789062 -56.726562 44.59375 -53.3125 C 46.394531 -49.894531 47.671875 -46.160156 48.421875 -42.109375 C 49.171875 -38.054688 49.429688 -34.226562 49.203125 -30.625 C 48.972656 -26.644531 48.351562 -22.628906 47.34375 -18.578125 C 46.332031 -14.523438 44.847656 -10.882812 42.890625 -7.65625 C 40.941406 -4.425781 38.46875 -1.800781 35.46875 0.21875 C 32.46875 2.25 28.898438 3.265625 24.765625 3.265625 Z M 25.890625 -47.625 C 24.765625 -47.625 23.769531 -47.023438 22.90625 -45.828125 C 22.050781 -44.628906 21.335938 -43.164062 20.765625 -41.4375 C 20.203125 -39.707031 19.769531 -37.882812 19.46875 -35.96875 C 19.175781 -34.0625 19.03125 -32.394531 19.03125 -30.96875 C 19.03125 -29.164062 19.195312 -27.210938 19.53125 -25.109375 C 19.875 -23.003906 20.34375 -21.066406 20.9375 -19.296875 C 21.539062 -17.535156 22.273438 -16.070312 23.140625 -14.90625 C 24.003906 -13.75 25 -13.171875 26.125 -13.171875 C 27.320312 -13.171875 28.351562 -13.734375 29.21875 -14.859375 C 30.082031 -15.984375 30.773438 -17.410156 31.296875 -19.140625 C 31.828125 -20.867188 32.203125 -22.765625 32.421875 -24.828125 C 32.648438 -26.890625 32.765625 -28.820312 32.765625 -30.625 C 32.765625 -32.28125 32.613281 -34.101562 32.3125 -36.09375 C 32.007812 -38.082031 31.578125 -39.9375 31.015625 -41.65625 C 30.453125 -43.382812 29.738281 -44.8125 28.875 -45.9375 C 28.007812 -47.0625 27.015625 -47.625 25.890625 -47.625 Z M 25.890625 -47.625 "/></g></g></g><g fill="#ffffff" fill-opacity="1"><g transform="translate(313.043082, 110.259535)"><g><path d="M 29.609375 4.046875 C 24.285156 4.046875 20.140625 3.351562 17.171875 1.96875 C 14.203125 0.582031 11.984375 -1.382812 10.515625 -3.9375 C 9.054688 -6.488281 8.175781 -9.566406 7.875 -13.171875 C 7.582031 -16.773438 7.4375 -20.789062 7.4375 -25.21875 C 7.4375 -28.75 7.546875 -32.296875 7.765625 -35.859375 C 7.992188 -39.421875 8.332031 -43.234375 8.78125 -47.296875 C 7.726562 -47.296875 6.898438 -47.273438 6.296875 -47.234375 C 5.703125 -47.191406 5.21875 -47.171875 4.84375 -47.171875 C 2.4375 -47.171875 0.351562 -47.695312 -1.40625 -48.75 C -3.164062 -49.800781 -4.046875 -51.414062 -4.046875 -53.59375 C -4.046875 -54.945312 -3.539062 -56.148438 -2.53125 -57.203125 C -1.519531 -58.253906 -0.226562 -59.15625 1.34375 -59.90625 C 2.925781 -60.65625 4.632812 -61.253906 6.46875 -61.703125 C 8.3125 -62.148438 10.054688 -62.453125 11.703125 -62.609375 C 11.703125 -64.703125 11.851562 -67.023438 12.15625 -69.578125 C 12.457031 -72.128906 13 -74.515625 13.78125 -76.734375 C 14.570312 -78.953125 15.644531 -80.8125 17 -82.3125 C 18.351562 -83.8125 20.082031 -84.5625 22.1875 -84.5625 C 23.382812 -84.5625 24.453125 -84.203125 25.390625 -83.484375 C 26.328125 -82.773438 27.09375 -81.875 27.6875 -80.78125 C 28.289062 -79.695312 28.742188 -78.476562 29.046875 -77.125 C 29.347656 -75.769531 29.5 -74.457031 29.5 -73.1875 C 29.5 -71.6875 29.382812 -70.144531 29.15625 -68.5625 C 28.9375 -66.988281 28.523438 -65.039062 27.921875 -62.71875 C 29.203125 -62.863281 30.066406 -62.953125 30.515625 -62.984375 C 30.960938 -63.023438 31.375 -63.046875 31.75 -63.046875 C 33.03125 -63.046875 34.363281 -62.929688 35.75 -62.703125 C 37.132812 -62.484375 38.410156 -62.109375 39.578125 -61.578125 C 40.742188 -61.054688 41.703125 -60.363281 42.453125 -59.5 C 43.203125 -58.644531 43.578125 -57.613281 43.578125 -56.40625 C 43.578125 -55.0625 43.03125 -53.863281 41.9375 -52.8125 C 40.851562 -51.757812 39.484375 -50.859375 37.828125 -50.109375 C 36.179688 -49.359375 34.414062 -48.773438 32.53125 -48.359375 C 30.65625 -47.941406 28.894531 -47.660156 27.25 -47.515625 C 26.800781 -44.441406 26.484375 -41.609375 26.296875 -39.015625 C 26.109375 -36.421875 25.898438 -33.8125 25.671875 -31.1875 C 25.523438 -29.914062 25.394531 -28.617188 25.28125 -27.296875 C 25.164062 -25.984375 25.109375 -24.65625 25.109375 -23.3125 C 25.109375 -22.332031 25.144531 -21.1875 25.21875 -19.875 C 25.289062 -18.5625 25.550781 -17.300781 26 -16.09375 C 26.457031 -14.894531 27.171875 -13.863281 28.140625 -13 C 29.117188 -12.132812 30.472656 -11.703125 32.203125 -11.703125 C 33.253906 -11.703125 34.34375 -11.796875 35.46875 -11.984375 C 36.59375 -12.171875 37.71875 -12.265625 38.84375 -12.265625 C 40.789062 -12.265625 42.195312 -11.585938 43.0625 -10.234375 C 43.925781 -8.890625 44.359375 -7.164062 44.359375 -5.0625 C 44.359375 -3.488281 43.890625 -2.117188 42.953125 -0.953125 C 42.015625 0.203125 40.832031 1.132812 39.40625 1.84375 C 37.976562 2.5625 36.382812 3.109375 34.625 3.484375 C 32.863281 3.859375 31.191406 4.046875 29.609375 4.046875 Z M 29.609375 4.046875 "/></g></g></g></g></g></svg>