<svg xmlns="http://www.w3.org/2000/svg" xmlns:xlink="http://www.w3.org/1999/xlink" width="600" zoomAndPan="magnify" viewBox="0 0 450 449.999984" height="600" preserveAspectRatio="xMidYMid meet" version="1.0"><defs><clipPath id="8521b44dec"><path d="M 183 26.042969 L 267 26.042969 L 267 91 L 183 91 Z M 183 26.042969 " clip-rule="nonzero"/></clipPath></defs><path fill="#545454" d="M 81.792969 205.59375 C 81.792969 126.503906 145.90625 62.386719 225 62.386719 C 304.089844 62.386719 368.207031 126.503906 368.207031 205.59375 L 368.207031 294.714844 L 394.460938 347.222656 C 396.609375 351.519531 396.378906 356.621094 393.855469 360.707031 C 391.328125 364.792969 386.867188 367.28125 382.066406 367.28125 L 67.933594 367.28125 C 63.128906 367.28125 58.667969 364.792969 56.144531 360.707031 C 53.617188 356.621094 53.390625 351.519531 55.535156 347.222656 L 81.792969 294.714844 Z M 225 90.105469 C 161.214844 90.105469 109.507812 141.8125 109.507812 205.59375 L 109.507812 297.988281 C 109.507812 300.136719 109.007812 302.261719 108.046875 304.183594 L 90.355469 339.5625 L 359.644531 339.5625 L 341.953125 304.183594 C 340.992188 302.261719 340.488281 300.136719 340.488281 297.988281 L 340.488281 205.59375 C 340.488281 141.8125 288.785156 90.105469 225 90.105469 Z M 225 90.105469 " fill-opacity="1" fill-rule="evenodd"/><g clip-path="url(#8521b44dec)"><path fill="#545454" d="M 183.421875 67.007812 C 183.421875 44.042969 202.039062 25.429688 225 25.429688 C 247.960938 25.429688 266.574219 44.042969 266.574219 67.007812 L 266.574219 76.246094 C 266.574219 83.898438 260.371094 90.105469 252.71875 90.105469 L 197.28125 90.105469 C 189.628906 90.105469 183.421875 83.898438 183.421875 76.246094 Z M 211.929688 62.386719 L 238.070312 62.386719 C 236.167969 57.003906 231.035156 53.148438 225 53.148438 C 218.964844 53.148438 213.832031 57.003906 211.929688 62.386719 Z M 211.929688 62.386719 " fill-opacity="1" fill-rule="evenodd"/></g><path fill="#545454" d="M 275.816406 371.902344 C 275.816406 399.964844 253.066406 422.714844 225 422.714844 C 196.933594 422.714844 174.183594 399.964844 174.183594 371.902344 L 174.183594 353.421875 C 174.183594 345.769531 180.390625 339.5625 188.042969 339.5625 L 261.957031 339.5625 C 269.609375 339.5625 275.816406 345.769531 275.816406 353.421875 Z M 225 395 C 237.757812 395 248.097656 384.660156 248.097656 371.902344 L 248.097656 367.28125 L 201.902344 367.28125 L 201.902344 371.902344 C 201.902344 384.660156 212.242188 395 225 395 Z M 225 395 " fill-opacity="1" fill-rule="evenodd"/></svg>